<?xml version="1.0" standalone="no"?>
<!DOCTYPE svg PUBLIC "-//W3C//DTD SVG 20010904//EN"
 "http://www.w3.org/TR/2001/REC-SVG-20010904/DTD/svg10.dtd">
<svg version="1.0" xmlns="http://www.w3.org/2000/svg"
 width="1024.000000pt" height="1199.000000pt" viewBox="0 0 1024.000000 1199.000000"
 preserveAspectRatio="xMidYMid meet">

<g transform="translate(0.000000,1199.000000) scale(0.100000,-0.100000)"
fill="#000000" stroke="none">
<path d="M5017 11468 c-15 -5 -60 -28 -99 -49 l-72 -39 -38 30 c-61 49 -104
63 -174 57 -54 -5 -201 -53 -191 -63 1 -2 41 10 88 26 46 16 102 29 124 29 42
1 117 -28 130 -49 9 -14 -11 -30 -40 -30 -26 0 -52 -17 -42 -26 4 -4 13 -2 19
4 16 16 38 15 38 -2 0 -7 15 -17 33 -21 28 -7 23 -9 -43 -16 -91 -10 -158 -31
-227 -71 -54 -30 -67 -48 -36 -48 12 0 5 -9 -19 -25 -20 -14 -40 -25 -43 -25
-9 0 -164 -103 -209 -139 -21 -17 -44 -31 -50 -31 -6 0 -2 7 9 16 118 88 200
163 189 173 -2 2 -15 -4 -30 -14 -17 -11 -24 -12 -18 -4 9 16 -61 -47 -161
-145 -41 -40 -56 -59 -36 -45 26 17 33 19 29 7 -7 -18 18 -18 64 0 19 8 29 8
34 1 3 -6 18 -8 33 -4 35 9 29 4 -59 -41 -41 -21 -86 -46 -100 -55 -82 -56
-130 -78 -123 -57 4 10 -28 -2 -59 -24 -14 -10 -29 -18 -32 -18 -4 0 -12 -4
-19 -10 -79 -65 -114 -89 -124 -86 -15 6 -55 -43 -46 -57 3 -5 1 -7 -5 -3 -6
3 -28 -18 -52 -51 -42 -59 -116 -201 -108 -209 3 -2 21 20 41 48 45 66 122
142 114 113 -40 -138 -49 -184 -54 -265 -3 -54 -1 -117 5 -145 11 -50 51 -150
57 -143 2 2 -3 30 -11 63 -25 108 -13 153 20 78 10 -22 14 -27 11 -13 -26 121
-10 274 42 379 43 88 230 271 198 194 -46 -111 -67 -187 -76 -276 -6 -56 -24
-140 -39 -187 -63 -189 -85 -392 -56 -513 14 -62 94 -252 102 -244 2 2 -3 25
-11 52 -16 53 -20 125 -6 125 4 0 25 -27 46 -61 20 -33 39 -59 41 -57 2 3 -6
29 -18 59 -18 45 -22 75 -22 186 -1 119 4 156 19 141 3 -3 9 -32 14 -64 l9
-59 1 81 c1 95 18 189 37 205 15 12 16 9 34 -103 6 -37 21 -105 34 -150 13
-46 31 -123 40 -173 17 -89 48 -172 80 -210 17 -19 17 -19 11 18 -8 51 2 82
21 66 8 -6 14 -17 14 -25 0 -7 4 -15 9 -18 5 -3 2 15 -6 42 -28 90 -30 303 -3
276 6 -6 29 -64 53 -129 24 -66 51 -133 60 -150 20 -37 73 -100 58 -69 -23 48
-32 121 -26 207 8 99 17 99 49 1 9 -29 35 -81 56 -117 22 -36 40 -70 40 -75 0
-5 -21 -20 -47 -33 -25 -13 -80 -56 -122 -96 -62 -59 -82 -72 -108 -73 -21 0
-44 -10 -65 -29 -31 -26 -40 -28 -149 -34 -111 -7 -169 -18 -197 -40 -21 -17
-8 -17 64 -2 38 7 107 17 154 21 51 4 92 12 102 21 19 17 59 14 66 -4 2 -7 -4
-13 -15 -13 -28 0 -139 -56 -146 -73 -3 -9 -45 -41 -92 -72 -48 -32 -104 -74
-125 -95 -21 -21 -70 -55 -109 -76 -73 -39 -86 -53 -51 -55 36 -3 40 -4 38
-14 -1 -5 -19 -21 -39 -35 -72 -48 -168 -142 -193 -186 -14 -24 -28 -66 -31
-92 -4 -26 -9 -55 -12 -65 -6 -21 -23 -12 -23 12 0 10 -7 24 -15 31 -8 7 -15
21 -15 31 0 11 -4 19 -9 19 -5 0 -15 -32 -22 -71 -11 -65 -10 -80 15 -212 39
-197 52 -235 99 -280 l39 -38 -7 -62 c-4 -34 -9 -93 -11 -131 -2 -38 -12 -94
-23 -125 -10 -31 -24 -75 -30 -98 -6 -23 -19 -50 -29 -59 -14 -14 -17 -35 -16
-103 1 -98 24 -170 82 -261 80 -124 122 -212 122 -257 0 -24 -4 -43 -10 -43
-19 0 -44 53 -42 87 2 27 -8 50 -50 111 -166 244 -190 490 -78 823 22 67 39
122 38 123 -69 26 -126 138 -148 291 -23 168 4 381 55 419 8 6 17 31 20 56 l6
45 -35 -67 c-132 -251 -117 -558 35 -723 l40 -44 -34 -93 c-46 -123 -64 -193
-77 -306 -17 -154 12 -270 111 -443 28 -49 48 -93 45 -97 -3 -5 -29 -3 -58 4
-106 28 -211 11 -331 -54 -88 -47 -167 -119 -241 -220 l-60 -80 -120 -41 c-67
-22 -175 -56 -241 -75 -141 -41 -134 -46 15 -11 87 21 163 46 338 113 7 2 51
50 98 106 102 120 172 175 276 216 78 30 149 37 223 21 26 -5 75 -59 75 -82 0
-5 -26 -9 -58 -9 -112 0 -246 -63 -368 -172 -44 -38 -95 -78 -115 -88 -19 -10
-52 -33 -72 -51 -20 -18 -72 -47 -115 -63 -144 -57 -174 -88 -176 -182 0 -30
2 -54 5 -54 3 0 13 -6 23 -13 15 -11 17 -17 7 -35 -6 -12 -18 -22 -27 -22 -8
0 -36 -19 -62 -43 -68 -63 -92 -77 -132 -77 -19 0 -70 -5 -112 -12 -43 -6 -80
-9 -83 -6 -3 3 -2 66 3 139 10 141 8 149 -34 149 -14 0 -31 14 -48 40 -30 45
-29 46 21 25 38 -16 169 -19 213 -5 17 5 -6 8 -67 9 -93 1 -156 17 -131 33 8
4 -3 8 -29 8 -30 0 -50 7 -72 26 -50 42 -53 54 -31 135 26 97 26 174 0 217
-11 17 -24 32 -30 32 -14 0 -103 136 -130 198 -16 37 -28 52 -39 49 -9 -2 -14
-10 -12 -18 2 -8 4 -65 5 -128 1 -125 -12 -155 -34 -77 -12 44 -44 85 -56 73
-4 -3 3 -21 15 -40 11 -19 21 -44 21 -56 0 -17 -6 -21 -35 -21 l-35 0 0 65 c0
51 -6 76 -26 116 -15 27 -29 70 -32 94 -2 25 -9 45 -13 45 -5 0 -9 9 -9 20 0
11 5 20 10 20 6 0 10 -3 10 -8 0 -4 18 -8 40 -8 22 -1 40 2 40 7 0 5 -17 9
-37 9 -37 0 -37 0 -15 16 32 22 81 4 126 -47 40 -43 47 -43 16 1 -27 38 -96
70 -149 70 -34 0 -51 7 -78 30 -29 26 -42 30 -91 30 -64 0 -117 -26 -179 -89
-52 -52 -38 -60 15 -10 109 105 122 104 122 -10 0 -82 2 -91 22 -105 16 -12
18 -16 7 -16 -20 0 -132 -72 -182 -117 -21 -18 -53 -41 -72 -50 -33 -16 -48
-43 -25 -43 20 0 65 28 90 55 25 27 127 101 154 111 10 4 12 -1 9 -20 -3 -14
-2 -50 1 -80 7 -52 9 -55 49 -71 l42 -17 -50 -25 c-27 -14 -87 -51 -133 -82
-45 -31 -93 -62 -106 -68 -30 -17 -53 -43 -37 -43 19 0 73 31 113 64 20 17 67
48 105 68 l68 37 0 -63 c0 -41 6 -70 17 -88 17 -25 9 -48 -16 -48 -5 0 -41
-22 -81 -49 -39 -26 -88 -51 -108 -55 -23 -4 -37 -13 -37 -21 0 -8 4 -15 9
-15 24 0 99 34 140 64 97 71 141 83 141 38 0 -15 5 -43 10 -62 7 -24 7 -36 0
-38 -6 -2 -17 -17 -25 -33 -9 -16 -21 -29 -29 -29 -13 0 -162 -82 -178 -98 -5
-5 -6 -33 -2 -62 6 -45 13 -59 47 -91 57 -52 172 -92 357 -124 85 -14 179 -30
209 -35 30 -6 72 -10 93 -10 22 0 53 -7 70 -16 26 -14 39 -14 96 -3 45 8 104
10 191 5 159 -10 626 -7 774 4 117 9 153 6 70 -5 -26 -4 -83 -13 -125 -20
-123 -23 -320 -44 -519 -55 -101 -6 -186 -14 -189 -17 -3 -3 87 -3 200 0 148
4 252 13 375 32 94 14 221 33 283 42 61 9 112 20 112 25 0 4 -4 8 -9 8 -5 0
18 30 52 66 96 103 207 151 305 132 47 -10 51 -9 100 25 28 19 65 41 82 48 37
17 40 25 50 121 10 93 39 188 57 188 7 0 13 6 13 14 0 7 12 35 26 62 80 150
201 529 229 718 9 56 18 64 40 34 83 -119 110 -151 162 -186 45 -30 66 -39 86
-35 15 3 30 9 33 14 8 14 27 10 21 -4 -3 -10 3 -12 23 -9 23 3 36 -5 75 -47
26 -27 67 -60 91 -71 24 -12 46 -26 49 -30 7 -12 -124 -142 -136 -135 -15 10
-21 -22 -9 -45 11 -20 13 -20 35 -6 22 15 25 15 33 -2 14 -26 3 -42 -28 -42
-18 0 -33 -8 -44 -24 -9 -14 -37 -35 -63 -47 -27 -13 -51 -24 -54 -26 -3 -2
-16 22 -28 54 -37 94 -40 274 -6 356 5 12 3 17 -8 17 -21 0 -26 -18 -38 -131
-14 -129 -1 -219 48 -317 35 -71 36 -72 55 -55 25 22 145 31 189 13 29 -13 59
-54 59 -84 0 -8 4 -16 9 -18 5 -1 20 -20 34 -41 l25 -37 -35 -83 c-20 -45 -44
-111 -55 -147 -10 -36 -21 -72 -24 -80 -5 -16 25 -52 70 -83 14 -10 35 -36 46
-58 23 -45 23 -47 -20 -234 -81 -345 -100 -496 -100 -786 0 -362 -23 -640 -65
-804 -9 -33 -33 -97 -55 -143 -33 -70 -43 -82 -64 -82 -14 0 -28 -4 -31 -10
-13 -22 -24 -9 -14 17 13 34 37 187 51 323 10 105 7 196 -13 385 -13 132 -12
251 5 353 23 139 -6 109 -33 -35 -6 -27 -20 -74 -31 -104 -17 -42 -24 -91 -31
-214 -6 -88 -10 -174 -9 -191 2 -88 -50 -303 -83 -342 -9 -11 -14 -6 -23 25
l-13 38 0 -50 c1 -118 0 -125 -20 -125 -26 0 -39 19 -44 65 l-4 40 -1 -42 c-1
-24 -6 -43 -12 -43 -13 0 -30 34 -30 63 0 35 -38 155 -52 163 -8 5 -10 -7 -6
-42 3 -27 3 -57 -1 -67 -6 -18 -7 -18 -22 0 -9 10 -28 39 -43 65 -24 41 -28
62 -33 159 l-6 112 -20 -38 c-13 -27 -19 -57 -18 -99 1 -84 12 -116 64 -183
25 -32 71 -101 102 -153 57 -94 58 -96 63 -187 6 -109 0 -137 -36 -170 -53
-49 -57 -48 -107 17 -61 79 -87 103 -149 134 -75 38 -182 50 -279 32 -96 -19
-119 -31 -115 -59 3 -21 8 -22 83 -22 78 0 81 -1 150 -46 83 -55 139 -111 159
-159 8 -19 30 -50 50 -68 41 -37 41 -35 20 -116 -19 -76 -34 -98 -86 -136 -66
-48 -86 -41 -130 49 -35 72 -131 167 -204 201 -93 45 -166 57 -210 37 -19 -9
-34 -22 -34 -29 0 -7 -26 -50 -58 -95 -31 -45 -81 -120 -110 -167 -29 -46 -64
-97 -78 -112 -13 -16 -43 -57 -66 -92 -37 -55 -48 -66 -68 -64 -3 0 -7 -9 -7
-20 -1 -12 -15 -35 -30 -52 -40 -44 -60 -67 -85 -99 -16 -19 -36 -30 -63 -34
-45 -7 -57 -19 -49 -47 3 -10 2 -28 -4 -40 -6 -11 -13 -29 -16 -38 -8 -28 -21
-21 -35 17 -13 37 -6 57 27 78 6 4 12 15 12 22 0 8 9 15 20 15 26 0 26 27 0
50 -11 9 -27 34 -35 54 -9 20 -22 36 -31 36 -19 0 -121 -71 -169 -117 -19 -18
-43 -33 -54 -33 -11 0 -33 -16 -48 -36 -15 -20 -50 -63 -76 -95 -26 -33 -45
-64 -42 -70 4 -5 -24 -44 -62 -85 -37 -42 -81 -92 -96 -112 -15 -21 -56 -68
-90 -105 -34 -38 -71 -83 -82 -102 -11 -18 -33 -53 -50 -78 -16 -25 -43 -69
-60 -98 -46 -79 -50 -86 -76 -121 -50 -67 -92 -108 -110 -108 -16 0 -18 5 -13
28 23 100 49 162 89 217 11 14 38 51 60 80 22 30 48 66 58 80 10 14 22 23 28
20 5 -4 9 3 9 14 0 12 7 21 15 21 8 0 15 5 15 11 0 5 -4 7 -10 4 -6 -3 -7 1
-4 9 3 9 15 16 26 16 11 0 31 9 45 20 14 11 29 18 33 15 4 -2 5 30 3 71 -3 72
-1 79 33 137 56 97 168 241 264 342 85 90 152 185 154 219 l1 31 -55 0 c-65
-1 -185 -33 -277 -75 -68 -31 -119 -38 -125 -18 -5 13 -106 23 -143 14 -16 -4
-25 -13 -25 -26 0 -10 -9 -22 -20 -25 -11 -3 -20 -12 -20 -18 0 -7 -12 -32
-25 -57 -14 -25 -40 -75 -59 -112 -18 -37 -39 -73 -47 -81 -8 -9 -24 -28 -36
-44 -12 -16 -34 -42 -48 -57 -14 -15 -35 -46 -48 -68 -42 -76 -47 -84 -47 -68
0 8 12 42 25 75 14 33 25 68 25 77 0 10 19 64 41 120 105 261 196 396 344 511
180 141 326 209 600 282 110 30 262 80 285 96 13 8 13 11 -3 23 -32 25 -25 36
101 164 65 66 111 92 161 92 17 0 52 8 78 19 70 27 123 35 124 19 6 -81 -2
-101 -68 -172 -36 -39 -81 -96 -101 -126 -39 -61 -58 -79 -85 -80 -16 0 -17 5
-10 48 9 55 9 109 0 118 -11 11 -57 -25 -70 -54 -6 -15 -17 -33 -24 -40 -7 -7
-13 -26 -13 -42 0 -26 5 -29 65 -45 44 -12 72 -27 90 -46 l25 -29 -20 -40
c-11 -21 -20 -44 -20 -50 0 -20 21 -9 33 18 6 15 26 51 44 81 20 33 32 66 31
86 -2 43 46 123 126 212 60 67 65 77 81 150 31 147 57 201 117 246 55 41 87
53 243 92 82 21 160 42 172 48 24 11 34 34 58 142 26 117 83 309 115 387 16
40 30 74 30 76 0 1 7 2 15 2 8 0 15 5 15 11 0 5 4 8 9 4 5 -3 13 0 17 6 10 17
86 49 117 49 27 0 36 13 17 25 -16 10 -12 41 9 66 l18 23 17 -32 c9 -18 21
-30 25 -28 16 10 22 87 10 126 -10 33 -9 43 5 64 9 14 16 31 16 38 0 11 -2 10
-9 0 -14 -22 -35 15 -41 72 -4 38 -9 50 -20 47 -8 -2 -30 -5 -47 -8 -30 -4
-33 -2 -33 21 0 14 -3 26 -8 26 -22 0 -141 -133 -172 -194 -19 -37 -51 -99
-71 -137 -55 -107 -63 -109 -56 -14 6 79 20 126 71 235 14 30 26 69 26 86 0
28 -3 32 -27 31 -15 0 -37 -5 -48 -13 -11 -7 -37 -16 -58 -20 -30 -5 -44 -15
-65 -48 -14 -22 -33 -50 -42 -61 -21 -26 -44 -100 -36 -113 3 -6 2 -13 -4 -17
-12 -7 -33 -55 -55 -123 -17 -52 -17 -52 10 -97 14 -25 30 -45 35 -45 5 0 11
-8 14 -17 3 -10 16 -19 28 -19 137 -9 183 -15 187 -25 8 -24 -22 -126 -55
-189 -19 -36 -39 -84 -44 -108 -13 -52 -30 -46 -31 11 -1 40 -2 40 -9 12 -4
-16 -8 -56 -9 -88 -1 -65 -16 -79 -55 -54 -19 13 -25 30 -35 92 -6 42 -11 99
-12 128 l-1 52 -14 -50 c-7 -27 -16 -90 -20 -138 -6 -71 -10 -90 -25 -98 -11
-5 -19 -7 -19 -4 0 3 -23 -6 -51 -20 -101 -52 -97 -52 -149 4 l-47 50 8 -42
c11 -55 11 -57 0 -57 -7 0 -37 64 -65 140 -3 8 -4 -34 -1 -95 6 -132 -5 -117
-36 51 -12 63 -27 121 -33 127 -13 14 -16 25 -27 88 -4 26 -18 70 -30 99 -22
51 -23 52 -35 28 -26 -50 -66 -166 -96 -278 -24 -92 -31 -143 -35 -255 -6
-139 -6 -140 -39 -186 -35 -49 -84 -145 -84 -167 0 -7 -26 -48 -58 -90 -47
-62 -143 -199 -147 -209 -1 -2 -66 -19 -145 -39 -156 -39 -319 -98 -446 -162
-180 -90 -363 -237 -442 -353 -86 -127 -171 -341 -216 -540 -25 -113 -31 -146
-61 -369 -41 -304 -126 -630 -213 -820 -35 -78 -89 -213 -107 -270 -54 -169
-176 -351 -361 -540 -150 -154 -234 -260 -234 -296 0 -33 10 -54 27 -54 8 0
49 -17 91 -37 l77 -38 216 -3 215 -3 12 25 c6 14 34 60 62 101 27 42 50 80 50
84 0 9 87 134 112 161 26 29 36 75 42 180 6 133 42 311 86 430 11 30 29 90 40
133 11 44 32 104 48 135 44 91 123 234 148 272 13 19 24 38 24 42 0 4 13 26
29 50 15 24 48 81 71 128 24 47 60 110 80 140 21 31 45 71 55 90 10 19 32 52
49 74 l31 38 103 -7 c63 -4 107 -3 115 3 7 5 27 13 44 17 18 3 39 15 47 26 11
17 10 26 -10 67 -39 79 -53 88 -72 46 -7 -14 -16 -23 -21 -19 -5 3 -13 0 -17
-6 -3 -6 -1 -15 6 -19 15 -9 6 -40 -11 -40 -6 0 -9 6 -6 14 4 11 -5 9 -31 -6
l-37 -22 24 27 24 27 -32 0 c-18 0 -41 -5 -52 -10 -16 -9 -15 -5 7 27 37 56
106 133 129 146 17 9 18 8 8 -4 -9 -11 -7 -19 7 -36 10 -13 23 -23 28 -23 5 0
23 -13 40 -28 l30 -28 5 26 c6 30 71 100 93 100 8 0 24 20 35 45 14 31 26 45
39 45 15 0 20 7 20 28 0 22 7 31 36 44 35 16 36 16 41 -3 3 -10 9 -16 14 -13
15 9 -10 -47 -34 -77 -42 -53 -307 -455 -307 -466 0 -3 -6 -14 -14 -22 -18
-20 -100 -181 -104 -203 -1 -9 2 -19 8 -23 5 -3 10 -33 10 -65 0 -38 4 -60 12
-62 9 -3 8 -9 -4 -21 -12 -12 -18 -14 -21 -4 -4 9 -6 9 -6 0 -1 -7 -7 -13 -14
-13 -7 0 -18 -9 -25 -21 -8 -12 -19 -18 -28 -15 -8 3 -14 1 -14 -5 0 -14 -31
-54 -102 -132 -51 -56 -128 -158 -139 -183 -10 -24 -75 -125 -115 -179 -86
-118 -272 -400 -313 -476 l-20 -36 25 5 c22 4 25 1 22 -18 -1 -12 -18 -39 -36
-58 -27 -30 -30 -38 -17 -45 21 -11 19 -31 -6 -53 -11 -10 -25 -26 -30 -36 -8
-15 -7 -15 22 -1 34 17 49 47 49 98 0 29 3 33 25 31 22 -1 24 -4 20 -41 -2
-22 -4 -45 -4 -52 -1 -7 -8 -10 -16 -7 -13 5 -14 -2 -9 -50 6 -50 5 -56 -11
-56 -10 0 -35 -17 -55 -37 -20 -21 -64 -60 -99 -88 -34 -27 -75 -60 -89 -72
l-27 -23 144 1 c95 1 139 5 128 11 -10 5 -22 6 -29 2 -15 -9 -2 14 25 43 19
22 56 30 70 17 8 -8 -11 -57 -26 -66 -7 -4 51 -8 128 -8 l140 0 44 78 c243
428 697 927 1097 1204 91 64 265 163 404 233 259 129 441 302 588 559 124 215
192 526 180 820 l-5 120 63 95 c114 172 127 188 155 205 116 68 192 166 229
293 l23 78 154 90 c221 128 376 233 464 313 l76 69 79 6 c110 10 182 46 268
137 36 39 67 70 69 70 2 0 41 -22 86 -50 46 -27 120 -64 165 -82 75 -30 90
-32 207 -34 l125 -2 115 -113 c140 -140 264 -229 434 -313 194 -96 365 -148
671 -203 l154 -27 92 -100 c188 -203 478 -450 603 -513 60 -31 156 -65 163
-58 3 3 -1 5 -8 5 -7 0 -11 2 -8 5 8 9 38 -6 32 -16 -3 -5 2 -6 10 -3 9 3 16
2 16 -4 0 -5 36 -18 80 -28 66 -15 80 -22 77 -36 -3 -9 0 -15 7 -12 6 2 18 -1
26 -6 12 -8 6 -17 -33 -51 -26 -22 -45 -45 -41 -50 3 -5 -2 -9 -10 -9 -9 0
-16 -5 -16 -12 0 -7 -22 -33 -50 -59 -27 -26 -50 -49 -50 -51 0 -3 -25 -42
-55 -87 -30 -44 -59 -100 -65 -124 -17 -64 -17 -65 -42 -69 -16 -2 -25 -13
-33 -40 -18 -64 -25 -54 -25 33 0 75 4 92 34 154 60 126 181 261 299 333 20
13 37 26 37 28 0 8 -64 -28 -105 -60 -195 -149 -300 -330 -299 -516 0 -93 10
-133 96 -385 75 -217 74 -224 -29 -450 -45 -99 -96 -216 -113 -260 -61 -156
-155 -306 -271 -435 -10 -10 -30 -40 -45 -66 -25 -42 -29 -60 -29 -124 -1 -65
-5 -81 -29 -116 -36 -55 -71 -158 -90 -268 -9 -49 -14 -91 -12 -93 1 -2 359
-2 795 -1 l792 3 -85 74 c-131 114 -262 195 -399 246 -26 10 -50 22 -53 27 -6
9 40 164 88 298 17 47 66 156 109 242 79 158 100 196 269 498 181 323 204 366
266 495 34 72 80 178 103 236 40 101 43 106 87 127 53 26 130 95 151 135 11
21 14 56 12 126 -1 73 3 113 20 170 40 141 22 214 -78 310 -54 52 -64 68 -100
167 -23 60 -45 118 -50 129 -4 11 -27 70 -51 130 -64 165 -287 614 -353 710
-68 99 -120 164 -128 160 -7 -5 8 -52 21 -65 34 -32 268 -422 288 -479 21 -60
18 -64 -40 -59 -46 5 -57 10 -88 47 -20 22 -40 41 -45 41 -5 0 -33 23 -62 52
-29 28 -56 49 -60 45 -4 -4 7 -21 25 -36 41 -38 92 -119 92 -147 0 -20 -17
-34 -41 -34 -9 0 -129 243 -129 260 0 5 10 6 23 3 12 -3 19 -2 15 2 -4 4 -1
13 8 20 15 10 13 16 -10 61 -79 146 -162 264 -248 352 -55 55 -66 62 -102 63
-23 1 -47 1 -55 -1 -7 -1 -28 12 -45 27 -44 42 -146 115 -146 106 0 -4 22 -30
50 -58 33 -33 56 -69 69 -103 10 -29 23 -58 30 -65 6 -6 11 -21 11 -33 0 -12
4 -24 9 -26 23 -9 109 -193 96 -206 -2 -2 -14 3 -27 12 -37 26 -38 19 -6 -49
20 -44 28 -73 24 -90 -9 -36 -20 -31 -50 25 -26 47 -46 71 -46 53 0 -4 11 -27
24 -50 34 -60 39 -80 22 -86 -10 -4 -36 23 -82 84 -36 49 -69 88 -71 85 -2 -2
19 -45 48 -95 28 -51 50 -94 47 -96 -13 -13 -111 56 -150 105 -62 79 -88 107
-88 92 0 -7 5 -22 10 -33 21 -38 -7 -17 -82 63 -61 65 -78 78 -78 61 0 -12 5
-25 10 -28 6 -3 10 -11 10 -16 0 -22 -93 68 -115 111 -13 25 -31 53 -41 61
-19 15 -19 18 2 -36 4 -11 -21 9 -57 45 -36 36 -80 76 -98 89 -89 66 -268 420
-394 781 -109 311 -130 365 -148 376 -14 8 -79 23 -79 18 0 -2 30 -66 66 -142
36 -75 74 -158 84 -184 11 -25 36 -81 58 -125 21 -43 66 -150 101 -238 35 -88
78 -199 97 -246 19 -48 34 -92 34 -97 0 -6 15 -46 34 -89 19 -43 38 -91 42
-108 4 -16 16 -47 26 -68 37 -75 3 -49 -45 33 -30 51 -34 43 -12 -20 8 -24 13
-45 11 -47 -12 -12 -43 11 -61 44 -56 111 -84 138 -41 39 23 -52 24 -55 5 -46
-21 12 -47 50 -116 170 -23 41 -43 72 -43 68 0 -3 16 -44 35 -89 52 -124 39
-118 -45 21 -28 45 -50 85 -50 89 0 5 -7 15 -16 22 -15 12 -16 11 -9 -11 4
-14 18 -49 31 -79 14 -30 22 -56 19 -59 -7 -7 -143 134 -192 198 -49 65 -109
163 -218 355 -44 77 -90 155 -102 173 -12 18 -43 76 -69 130 -26 53 -66 131
-90 172 -72 126 -104 312 -69 397 17 41 119 169 146 183 28 15 59 12 86 -10
14 -11 33 -20 43 -20 28 0 57 -41 86 -120 14 -41 41 -96 58 -123 26 -40 39
-50 84 -64 46 -15 55 -15 62 -3 5 9 4 20 -3 29 -10 12 -9 13 3 6 13 -8 13 -7
1 8 -7 10 -46 37 -85 62 -68 42 -72 47 -101 117 -49 123 -67 147 -124 174 -29
13 -50 28 -46 34 10 16 27 12 55 -12 14 -13 5 -3 -21 22 -44 42 -47 49 -54
109 -8 84 -32 144 -87 222 -25 35 -57 85 -72 110 l-26 47 21 163 c16 123 23
233 26 440 l4 275 39 111 c57 163 74 257 66 368 -6 78 -4 94 9 105 10 9 15 26
13 46 -2 30 3 37 52 71 61 43 100 107 130 215 l17 63 49 -3 c57 -4 160 -22
299 -53 85 -20 130 -23 300 -23 178 -1 210 2 293 22 51 13 92 26 90 28 -2 2
-55 -5 -117 -16 -156 -27 -387 -27 -547 0 -65 11 -123 25 -128 30 -16 16 47
12 157 -11 85 -17 125 -20 237 -15 218 8 348 32 493 90 66 27 99 31 97 11 -1
-5 -28 -21 -61 -34 -32 -14 -57 -26 -55 -28 2 -3 38 9 79 26 66 26 85 29 154
26 l78 -4 -65 8 c-36 4 -78 15 -95 24 -34 18 -13 23 30 7 33 -12 87 -14 195
-6 47 4 109 2 139 -2 41 -7 69 -5 123 8 38 10 75 24 84 31 8 6 17 9 20 6 12
-11 -23 -50 -61 -68 -31 -14 -35 -19 -17 -19 32 0 161 116 200 180 37 63 41
104 12 160 -11 22 -22 40 -24 40 -2 0 0 -19 5 -42 4 -24 8 -56 9 -71 0 -25 -3
-27 -22 -21 -39 12 -78 6 -129 -20 -27 -14 -51 -26 -54 -26 -3 0 -3 26 0 58 4
34 2 67 -4 82 -10 22 -11 19 -7 -23 3 -39 2 -45 -9 -31 -10 15 -13 11 -19 -25
-9 -57 -36 -121 -44 -101 -11 31 -25 37 -52 23 -27 -14 -42 -1 -21 20 6 6 11
18 11 27 0 9 11 27 25 40 17 16 25 34 25 56 0 41 9 64 25 64 21 0 45 35 45 67
0 16 5 44 11 60 13 38 -1 75 -68 181 -25 41 -61 110 -79 154 -18 45 -44 92
-56 106 l-23 24 25 -7 c14 -4 38 -13 54 -21 33 -16 37 -16 53 -6 10 6 9 19 -3
57 -8 28 -14 51 -14 53 4 24 -85 211 -120 252 -14 16 -27 21 -45 18 -17 -4
-40 4 -71 23 -24 16 -47 29 -49 29 -3 0 18 -31 46 -70 37 -50 51 -79 52 -105
1 -19 6 -35 11 -35 6 0 2 -7 -8 -15 -16 -12 -17 -17 -6 -30 16 -20 23 -132 9
-141 -6 -3 -34 19 -62 48 -29 30 -81 77 -116 104 -201 154 -253 215 -345 400
-75 150 -92 219 -58 227 15 3 15 5 -3 11 -79 28 -91 55 -32 69 27 7 45 19 58
41 24 39 24 54 1 33 -30 -27 -89 -47 -141 -47 -86 0 -92 13 -12 26 78 13 131
48 131 86 0 24 -3 24 -73 -19 -55 -34 -67 -38 -126 -37 -89 2 -159 33 -215 95
-45 50 -72 104 -56 114 5 3 30 -22 56 -56 35 -46 61 -68 101 -86 29 -13 61
-23 71 -20 12 3 5 9 -23 21 -60 27 -95 64 -95 102 0 43 15 53 105 64 43 5 80
12 83 14 2 3 -19 16 -46 30 -28 14 -52 29 -55 33 -7 13 20 56 27 44 8 -12 113
-13 161 -1 25 6 27 8 12 15 -9 4 -27 5 -39 2 -49 -13 -138 54 -138 105 0 22
-5 27 -27 30 -23 2 -29 9 -31 34 -2 19 3 36 12 44 9 7 16 20 16 28 0 25 -35
-13 -62 -68 -19 -37 -28 -45 -53 -47 -16 -1 -42 -5 -57 -9 -18 -4 -42 1 -71
15 -24 12 -53 21 -65 21 -12 0 -22 4 -22 8 0 15 73 94 123 134 63 49 91 84 83
105 -5 12 -31 -10 -109 -92 -56 -59 -108 -116 -115 -126 -12 -17 -14 -17 -49
6 -36 25 -53 29 -106 26 l-27 -1 27 42 c15 24 58 76 96 117 53 58 67 80 65
100 -5 47 -34 37 -62 -22 -14 -30 -50 -88 -80 -128 -30 -41 -61 -83 -68 -93
-14 -18 -15 -18 -66 5 -46 21 -52 27 -52 54 0 24 16 48 78 115 71 77 102 124
102 151 0 23 -235 -196 -277 -258 l-15 -22 -51 28 c-80 43 -101 55 -108 65 -4
5 -14 -5 -23 -23 -16 -30 -16 -34 4 -78 18 -42 19 -48 5 -63 -14 -16 -14 -17
8 -13 17 3 51 -10 106 -42 44 -26 83 -51 87 -56 3 -5 13 -9 23 -9 9 0 25 -6
34 -13 16 -11 16 -14 -3 -52 -11 -21 -20 -47 -20 -57 0 -25 -12 -23 -40 7 -21
23 -23 29 -13 55 9 25 9 30 -3 30 -12 0 -34 -37 -34 -58 0 -4 11 -19 25 -34
14 -15 25 -30 25 -33 0 -14 -101 10 -178 42 -46 19 -86 33 -89 30 -3 -3 8 -29
24 -58 18 -35 42 -61 70 -78 23 -14 60 -37 81 -50 50 -30 126 -103 163 -157
16 -23 48 -58 71 -78 40 -35 45 -36 117 -36 42 1 94 7 115 15 42 15 56 12 56
-10 0 -20 47 -53 104 -73 37 -12 68 -34 111 -78 80 -81 120 -152 172 -303 50
-145 56 -144 14 3 -39 134 -52 162 -105 233 -63 83 -195 193 -248 207 -30 7
-36 21 -14 29 9 3 28 -6 45 -22 16 -15 69 -50 117 -77 150 -84 257 -212 297
-354 9 -30 20 -104 24 -165 10 -137 5 -345 -8 -325 -7 12 -9 10 -9 -7 0 -13
-2 -23 -5 -23 -2 0 -31 17 -64 38 -120 78 -219 89 -335 38 -32 -14 -60 -26
-62 -26 -2 0 -15 20 -30 45 -46 80 -186 186 -316 240 -63 26 -42 7 35 -31 77
-38 103 -58 118 -87 10 -17 8 -17 -28 -1 -50 23 -174 55 -193 51 -8 -2 17 -13
55 -25 39 -12 88 -34 108 -48 20 -13 37 -20 37 -13 0 8 4 8 15 -1 8 -7 15 -16
15 -21 0 -5 16 -31 35 -58 55 -76 47 -93 -16 -36 -57 51 -76 48 -38 -7 12 -16
20 -31 18 -32 -2 -2 -49 11 -105 29 -79 26 -125 35 -219 41 -88 5 -116 4 -111
-5 4 -6 18 -11 30 -11 40 0 108 -29 173 -73 70 -47 82 -67 59 -102 -18 -28
-111 -79 -126 -70 -6 3 -9 21 -7 38 2 28 -1 32 -22 29 -13 -1 -29 2 -35 7 -16
13 -76 24 -76 14 0 -5 5 -14 11 -20 7 -7 14 -30 16 -52 l4 -40 -53 21 c-66 26
-169 122 -164 152 2 15 9 20 25 18 22 -3 29 20 13 45 -9 14 -85 43 -112 43 -9
0 -25 16 -36 35 -31 59 -88 62 -146 8 -13 -11 -38 -30 -56 -41 l-34 -20 23
-21 c13 -11 17 -21 11 -21 -16 0 -15 -27 1 -33 6 -2 -5 -9 -26 -16 -40 -14
-46 -38 -7 -33 15 3 21 -1 18 -10 -3 -7 -14 -14 -26 -16 -12 -2 -22 -7 -22
-12 0 -5 -17 -18 -37 -28 l-36 -19 36 -7 c35 -6 37 -9 37 -44 0 -20 -3 -54 -6
-75 -7 -37 -7 -37 -93 -63 -237 -70 -275 -88 -399 -181 -70 -52 -132 -128
-132 -163 0 -8 7 -26 16 -38 8 -12 12 -22 8 -22 -4 0 1 -9 12 -21 21 -23 76
-49 105 -49 26 0 24 -18 -6 -63 -15 -22 -34 -37 -46 -37 -22 0 -44 -44 -33
-69 4 -11 8 -12 11 -3 7 17 20 15 26 -5 2 -10 8 -27 12 -38 5 -16 5 -17 -4 -5
-9 13 -11 13 -11 -2 0 -10 -11 -19 -30 -23 -16 -4 -30 -10 -30 -14 0 -4 -32
-15 -72 -25 -199 -48 -332 -177 -333 -323 0 -51 4 -65 24 -87 l25 -26 -32 6
c-20 4 -32 3 -32 -4 0 -20 44 -35 101 -35 47 0 68 6 130 40 41 23 112 55 158
73 72 28 87 31 110 20 14 -6 23 -9 19 -5 -4 4 8 20 27 36 32 29 47 36 43 22
-3 -12 13 -53 20 -53 4 1 21 12 37 26 22 19 26 27 16 31 -23 9 -53 43 -48 56
6 20 37 20 87 -2 27 -12 66 -21 87 -21 21 0 79 -12 128 -26 130 -37 130 -37
163 -20 29 15 31 15 37 -4 10 -30 -40 -114 -67 -115 -14 0 -23 -6 -23 -15 -1
-24 -15 -40 -34 -40 -10 0 -30 -18 -45 -43 -24 -37 -36 -45 -90 -62 l-63 -20
-12 42 c-6 24 -15 43 -21 43 -12 0 -13 9 5 -77 8 -40 16 -108 16 -150 2 -128
26 -147 197 -158 102 -7 114 -6 134 11 20 19 21 19 13 -6 -7 -24 -7 -24 12 -7
21 18 63 23 63 8 0 -5 -9 -13 -21 -16 -13 -5 -18 -12 -14 -22 6 -17 -21 -53
-40 -53 -7 0 -18 -6 -24 -14 -9 -10 -6 -17 11 -28 20 -13 23 -24 23 -74 l0
-59 -50 -33 c-46 -31 -53 -33 -107 -27 -52 6 -59 5 -83 -19 -23 -23 -25 -23
-25 -6 0 34 -19 22 -26 -16 -10 -57 1 -128 26 -164 15 -21 19 -34 12 -39 -19
-12 4 -34 29 -28 13 3 50 0 84 -8 33 -8 77 -17 98 -20 23 -4 37 -11 37 -20 0
-8 -6 -15 -14 -15 -8 0 -18 -5 -22 -12 -5 -8 0 -9 15 -5 17 4 24 0 31 -18 5
-14 21 -42 36 -64 18 -28 24 -48 20 -65 -7 -27 -36 -44 -36 -21 0 8 -5 15 -11
15 -6 0 -9 -9 -6 -19 2 -10 1 -25 -4 -32 -7 -11 -9 -11 -9 -1 0 11 -2 11 -12
0 -7 -8 -18 -22 -23 -32 -6 -11 -25 -20 -45 -23 -43 -4 -67 -20 -142 -95 -76
-76 -90 -109 -96 -230 -5 -110 2 -128 52 -128 76 -1 75 -44 -2 -81 -30 -14
-59 -34 -65 -45 -12 -22 -27 -95 -29 -139 0 -23 -1 -25 -5 -7 -2 12 -10 22
-18 22 -7 0 -15 7 -19 15 -3 8 -20 24 -38 35 -49 30 -112 27 -261 -11 -60 -16
-89 -2 -129 61 -28 43 -29 49 -23 119 4 44 15 86 26 104 18 31 18 31 -6 63
-39 51 -107 214 -108 257 0 23 -5 41 -13 44 -8 3 -14 16 -14 29 0 29 -33 60
-79 75 -20 6 -56 23 -80 36 -36 21 -48 24 -63 14 -12 -8 -18 -8 -18 0 0 5 -4
7 -10 4 -5 -3 -10 -2 -10 4 0 5 -3 18 -7 28 -6 15 -5 16 9 5 36 -29 24 8 -17
57 -25 29 -45 58 -46 64 -6 67 -20 105 -41 110 -11 3 -17 10 -14 16 4 5 1 13
-4 16 -7 4 -8 19 -4 37 5 26 4 30 -10 25 -12 -5 -20 3 -32 33 -9 22 -24 42
-35 45 -10 4 -19 10 -19 14 0 15 -77 34 -94 24 -20 -11 -120 0 -152 17 -11 7
-38 38 -59 71 -20 32 -40 59 -44 59 -3 0 -26 18 -49 40 -49 44 -49 76 -1 36
29 -25 135 -54 147 -41 4 4 1 10 -7 13 -8 3 -35 23 -59 46 -24 23 -63 50 -86
61 -31 15 -47 32 -64 69 -13 26 -21 54 -18 62 7 18 53 18 106 -1 81 -28 133
-13 124 36 -4 18 -16 29 -39 38 -50 18 -132 87 -144 121 -5 17 -8 30 -6 30 2
0 21 -11 41 -25 47 -32 105 -49 138 -41 36 9 33 22 -11 45 -48 25 -97 73 -113
111 -13 32 -30 40 -30 15 0 -23 -40 -18 -101 13 -43 21 -59 36 -77 74 -21 43
-32 121 -19 135 4 3 28 -15 54 -41 82 -81 133 -103 246 -110 77 -4 105 -10
127 -26 66 -47 148 -80 199 -80 60 0 66 14 15 35 -55 23 -169 102 -233 161
-97 89 -132 196 -74 218 52 20 172 36 198 26 28 -11 85 -57 203 -166 71 -65
109 -90 120 -78 4 4 0 9 -8 12 -8 3 -40 29 -71 58 -40 39 -63 71 -82 119 -15
36 -27 73 -27 83 0 35 76 90 218 162 82 40 167 75 198 81 63 12 190 -2 237
-26 17 -8 33 -13 36 -9 9 9 -39 43 -97 70 l-52 24 30 41 c42 59 40 85 -8 92
-20 4 -69 22 -107 41 -39 19 -82 37 -97 41 -43 11 -23 25 35 25 37 0 70 -9
115 -30 79 -37 78 -16 0 23 -73 37 -144 43 -312 28 -72 -6 -153 -14 -181 -16
-63 -6 -184 -21 -295 -36 -46 -6 -118 -9 -160 -6 -148 11 -295 29 -303 36 -4
4 28 29 72 55 58 34 90 61 118 99 46 64 47 65 103 73 25 3 54 8 65 12 18 5 18
6 -5 13 -14 4 -57 7 -97 8 -69 1 -71 2 -91 34 -19 33 -73 67 -109 67 -17 1
-17 2 2 16 16 13 33 14 90 8 100 -12 219 -8 385 11 124 14 308 49 375 70 11 3
-2 -6 -28 -20 -27 -15 -47 -28 -45 -30 2 -2 45 0 96 5 51 6 109 7 129 4 53 -8
108 -47 150 -106 20 -28 39 -46 41 -39 4 12 -55 111 -67 111 -3 0 -17 9 -30
19 l-24 18 44 45 c24 25 57 62 72 82 40 52 89 73 197 85 51 6 96 8 100 6 4 -2
51 4 106 15 54 10 137 22 183 27 l83 8 4 40 c7 64 -2 81 -53 106 -39 19 -67
23 -177 26 l-131 4 25 -21 c14 -11 41 -33 60 -49 19 -16 43 -43 53 -60 l19
-32 -29 6 c-132 28 -229 72 -264 119 -18 24 -24 47 -27 104 -2 39 0 72 5 72 5
0 24 -16 43 -35 18 -19 35 -33 37 -31 2 2 -8 23 -22 47 -13 24 -25 53 -25 64
0 15 9 11 48 -26 52 -50 121 -103 127 -97 2 2 -12 28 -31 58 -39 63 -41 70
-15 70 48 0 326 -80 435 -125 13 -6 17 -5 13 2 -12 19 -151 82 -230 103 -43
12 -122 27 -175 34 l-97 12 -3 47 c-3 44 8 61 23 37 8 -12 106 -70 119 -70 5
0 2 8 -7 18 -14 15 -17 40 -17 125 0 59 3 107 8 107 4 0 28 -28 52 -61 40 -55
117 -129 133 -129 4 0 -7 22 -23 49 -39 63 -45 97 -30 178 17 90 16 215 -3
286 -8 31 -12 57 -8 57 11 0 76 -71 108 -120 17 -25 37 -65 44 -89 l13 -43 15
29 c9 16 15 53 15 88 0 51 -7 73 -44 149 -25 49 -62 108 -83 132 -33 38 -43
43 -65 37 -15 -3 -32 -6 -39 -5 -7 1 -20 3 -28 4 -8 1 -16 8 -16 17 -1 9 -2
23 -3 31 -1 20 -66 25 -135 10 -129 -29 -266 -106 -372 -210 -36 -35 -49 -56
-59 -99 -10 -44 -10 -55 1 -62 11 -7 10 -9 -4 -9 -11 0 -25 -19 -42 -55 -13
-30 -29 -55 -34 -55 -10 0 -15 33 -12 71 3 32 -22 40 -83 24 -31 -8 -63 -15
-71 -15 -22 0 -9 53 37 146 31 62 38 86 31 100 -6 10 -9 42 -9 70 2 41 9 60
36 95 48 64 142 159 156 159 7 0 15 -14 19 -30 7 -32 39 -58 50 -40 4 6 40 7
95 3 85 -6 171 9 274 46 15 6 -4 27 -110 121 -183 161 -172 149 -154 161 9 6
69 8 160 5 l145 -4 -75 14 c-173 33 -256 56 -336 93 -46 22 -84 44 -84 50 0 5
19 16 43 24 l42 15 -65 -5 c-59 -5 -74 -2 -138 26 -138 61 -276 84 -345 59z
m208 -21 l40 -11 -76 -7 c-83 -7 -195 -39 -246 -70 -24 -15 -30 -25 -26 -42 3
-13 1 -18 -4 -11 -4 6 -21 18 -38 27 -16 9 -25 16 -19 17 7 0 14 8 16 18 7 25
96 70 170 85 67 14 118 12 183 -6z m-395 -88 c10 -6 5 -7 -15 -3 -16 4 -34 11
-40 16 -11 12 31 1 55 -13z m1 -451 c27 -125 14 -166 -88 -269 -41 -42 -79
-94 -103 -140 -36 -72 -38 -74 -74 -73 -20 1 -40 4 -43 8 -6 6 33 93 158 352
45 91 109 184 128 184 5 0 14 -28 22 -62z m129 -83 c6 -33 15 -73 21 -90 16
-52 40 -308 30 -318 -5 -5 -38 -11 -73 -14 -89 -7 -98 5 -63 86 14 33 25 70
25 81 0 11 4 20 8 20 10 0 52 -85 52 -105 0 -8 4 -15 10 -15 5 0 7 12 5 28
-27 147 -45 289 -45 347 1 80 11 72 30 -20z m-669 3 c-22 -29 -50 -61 -63 -72
-13 -10 -47 -42 -77 -70 l-54 -51 52 70 c52 68 171 188 179 180 2 -2 -14 -27
-37 -57z m-341 -72 c0 -2 -8 -10 -17 -17 -16 -13 -17 -12 -4 4 13 16 21 21 21
13z m-200 -111 c-7 -9 -15 -13 -18 -10 -3 2 1 11 8 20 7 9 15 13 18 10 3 -2
-1 -11 -8 -20z m3614 -86 c25 -34 46 -64 46 -68 0 -5 -37 -8 -82 -9 -73 0 -87
3 -137 30 -62 35 -81 53 -81 80 0 20 32 24 74 9 18 -7 28 -6 36 5 8 8 30 14
55 14 41 0 46 -3 89 -61z m92 53 c11 -7 44 -76 44 -93 0 -18 -42 -20 -60 -4
-22 20 -44 80 -35 95 7 12 35 13 51 2z m-2741 -107 c-21 -41 -45 -46 -45 -10
0 16 9 29 28 39 36 19 40 12 17 -29z m99 -94 c-5 -23 0 -35 29 -63 41 -41 53
-73 37 -93 -8 -10 -10 -31 -5 -65 7 -51 -1 -63 -25 -35 -7 8 -18 15 -25 15 -7
0 -18 -7 -25 -15 -7 -8 -21 -15 -32 -15 -10 0 -21 -7 -24 -15 -4 -10 -13 -13
-25 -10 -14 5 -22 0 -29 -20 -8 -21 -15 -26 -31 -22 -15 4 -23 -1 -31 -19 -6
-13 -17 -23 -24 -22 -7 2 -20 -6 -28 -17 -11 -16 -17 -17 -27 -8 -10 10 -9 21
6 53 10 22 24 45 32 51 21 18 15 29 -18 29 -42 0 -68 -15 -111 -63 l-37 -42
-1 57 c0 69 32 214 60 268 26 50 50 45 44 -8 -4 -36 -4 -36 6 -7 9 29 34 55
52 55 5 0 0 -12 -11 -27 -10 -16 -22 -41 -26 -58 -8 -38 6 -25 20 18 6 19 21
37 38 45 15 7 27 17 27 23 0 5 31 9 68 9 44 0 75 5 88 15 28 21 34 18 28 -14z
m392 -234 c-1 -143 -4 -177 -18 -198 -9 -14 -23 -26 -32 -26 -14 0 -16 15 -15
96 1 53 4 107 8 121 7 22 9 18 16 -25 l9 -50 7 34 c9 42 -6 152 -22 162 -7 4
-9 17 -5 33 5 19 13 26 30 26 l24 0 -2 -173z m-211 35 c4 3 2 16 -5 27 -15 28
4 27 24 -1 20 -28 20 -38 2 -38 -19 0 -25 -20 -15 -50 5 -14 5 -38 1 -54 -7
-27 -9 -28 -25 -12 -16 16 -17 16 -17 -13 0 -17 -4 -31 -8 -31 -14 0 -62 56
-62 72 0 20 46 58 71 58 16 0 15 3 -6 25 -14 13 -25 30 -25 38 0 27 15 28 37
1 12 -16 25 -25 28 -22z m-80 -3 c13 -24 14 -34 4 -45 -6 -8 -15 -14 -19 -14
-10 0 -23 68 -15 80 9 15 13 13 30 -21z m-69 -83 c4 -16 11 -23 20 -19 8 3 14
1 14 -4 0 -13 -22 -33 -37 -33 -15 0 -46 57 -38 70 11 18 35 10 41 -14z m-50
-21 c19 -30 12 -55 -15 -55 -22 0 -38 38 -27 65 8 22 23 18 42 -10z m514 -75
c0 -64 -2 -71 -36 -112 -40 -48 -62 -62 -50 -32 25 62 53 153 49 158 -9 9 18
66 28 60 5 -3 9 -36 9 -74z m-560 20 c0 -10 -7 -24 -16 -31 -14 -11 -18 -10
-30 6 -17 23 -17 30 -3 56 10 20 11 20 30 3 10 -9 19 -25 19 -34z m-84 2 c6
-4 16 -17 22 -28 12 -23 3 -39 -28 -46 -8 -2 -22 -12 -31 -22 -21 -26 -39 -12
-39 30 0 35 8 42 27 23 7 -7 12 -1 16 20 7 32 13 36 33 23z m234 -60 c0 -29
-15 -20 -36 20 -13 25 -14 32 -3 39 16 10 38 -24 39 -59z m69 42 c38 34 57
-49 27 -117 -16 -36 -80 -109 -89 -101 -3 3 -19 -2 -37 -11 -17 -9 -45 -18
-63 -21 -71 -11 -156 -13 -161 -5 -11 17 19 61 42 61 15 0 22 6 22 19 0 14 6
17 24 14 21 -4 24 -1 28 34 3 24 -1 47 -10 61 -13 20 -13 25 -1 33 32 20 49 0
49 -60 0 -16 -4 -22 -15 -17 -8 3 -15 1 -15 -3 0 -5 7 -12 16 -15 11 -4 18 1
21 14 6 22 18 26 28 10 11 -18 35 -11 35 10 0 23 10 26 28 8 6 -6 15 -9 18 -5
9 8 7 71 -2 101 -6 20 -6 20 16 -2 20 -21 24 -22 39 -8z m527 -9 c7 -27 -47
-206 -71 -239 -15 -19 -15 -19 -15 5 0 13 7 44 16 69 9 25 20 70 25 100 13 74
19 90 29 90 6 0 12 -11 16 -25z m-656 -14 c5 -11 10 -32 10 -48 0 -27 0 -27
-19 -8 -27 28 -38 75 -17 75 8 0 20 -9 26 -19z m-255 -62 c9 -26 -8 -45 -23
-27 -6 7 -14 26 -18 42 -6 26 -5 27 14 17 11 -6 24 -20 27 -32z m155 -21 l0
-51 -25 23 c-45 42 -42 79 8 80 14 0 17 -9 17 -52z m-64 5 c7 -10 14 -32 14
-50 0 -39 -16 -36 -49 8 -18 24 -20 33 -11 45 16 19 30 18 46 -3z m828 -123
c-25 -123 -29 -170 -15 -170 10 0 21 25 21 48 0 9 13 28 30 42 23 19 32 38 40
80 14 72 26 82 35 28 4 -23 16 -63 26 -87 21 -47 68 -115 75 -108 3 2 0 26 -6
53 -7 29 -8 71 -4 104 l8 55 7 -45 c4 -25 8 -98 8 -163 l1 -119 31 -29 c17
-16 36 -29 43 -29 6 0 4 -5 -4 -10 -21 -13 -56 -12 -81 3 -18 10 -23 9 -42
-16 -12 -15 -37 -45 -54 -65 l-32 -37 -2 120 c-1 140 -7 170 -34 170 -34 0
-63 -69 -71 -167 -8 -102 -26 -133 -72 -122 -41 10 -60 22 -104 66 -22 22 -53
44 -69 50 -28 10 -29 11 -14 28 9 10 15 24 14 32 -4 34 4 51 50 97 l48 48 18
-101 c24 -140 29 -159 42 -163 9 -3 9 6 1 34 -6 21 -8 93 -6 164 4 122 4 127
34 165 17 21 46 67 65 101 19 34 34 61 35 60 1 -1 -9 -54 -22 -117z m-881 81
c17 -30 23 -61 10 -61 -14 0 -53 44 -53 60 0 17 8 30 20 30 3 0 13 -13 23 -29z
m207 -165 c0 -3 -5 -17 -10 -32 -10 -24 -8 -30 15 -48 l27 -21 -38 -39 c-34
-35 -40 -37 -73 -30 -20 4 -51 8 -68 8 -28 1 -33 4 -33 26 1 52 19 114 36 127
16 12 144 19 144 9z m-265 -178 l47 -61 -21 -20 -21 -21 -24 23 c-29 27 -57
101 -49 130 7 27 13 22 68 -51z m3334 -151 c65 -26 77 -45 29 -46 -18 -1 -115
-2 -215 -4 l-181 -2 36 18 c127 63 233 74 331 34z m-119 -77 c76 -14 81 -26
18 -40 l-33 -7 40 -19 c22 -10 51 -30 65 -44 14 -14 42 -34 63 -45 20 -11 37
-25 37 -32 0 -15 1 -15 50 -18 19 -1 44 -7 56 -13 20 -11 81 -90 73 -95 -20
-16 -302 -57 -436 -64 -138 -7 -408 33 -488 72 -47 24 -57 62 -15 58 24 -3 24
-2 6 12 -11 8 -17 17 -14 20 3 3 44 9 92 12 47 3 86 9 86 13 0 4 -7 14 -16 21
-15 12 -14 15 5 31 24 19 227 88 260 88 11 0 22 4 26 9 10 17 -36 23 -121 16
-56 -4 -84 -3 -84 4 0 9 12 12 90 24 53 9 190 7 240 -3z m290 -32 c0 -4 -4 -8
-10 -8 -5 0 -9 6 -7 13 1 6 -3 11 -10 10 -8 -2 -10 4 -6 14 6 14 8 14 20 -3 7
-10 13 -21 13 -26z m-3685 -88 c3 -5 2 -10 -4 -10 -5 0 -9 -18 -9 -40 0 -38 2
-40 32 -40 17 0 47 -8 66 -18 53 -26 46 -50 -30 -100 -36 -23 -66 -47 -68 -52
-6 -16 3 -12 57 22 28 17 54 28 57 25 26 -26 -68 -110 -256 -229 -30 -19 -81
-52 -112 -72 -31 -20 -60 -36 -65 -36 -4 0 -20 -6 -35 -14 -15 -8 -42 -14 -60
-13 -23 1 -50 -11 -92 -40 -52 -36 -61 -39 -74 -26 -12 11 -12 19 -3 39 15 34
14 35 -11 31 -13 -2 -17 -2 -10 0 6 3 12 16 12 29 0 14 11 40 25 58 14 18 22
36 17 41 -4 4 2 3 14 -3 28 -15 45 2 37 39 -5 25 2 36 52 84 32 30 65 55 73
55 13 0 12 -4 -5 -22 -28 -32 -63 -93 -63 -109 0 -8 10 0 22 16 12 17 54 62
94 101 74 73 131 153 100 141 -30 -12 -16 1 25 23 56 29 110 70 104 80 -7 12
21 32 58 40 45 11 45 11 52 0z m2786 -335 c41 -19 79 -35 86 -35 32 0 8 -21
-39 -35 -52 -15 -125 -18 -165 -7 l-23 7 30 53 c17 28 32 52 34 52 3 0 37 -16
77 -35z m-2576 -116 c60 -6 147 -15 193 -21 132 -16 101 -24 -148 -37 -143 -7
-175 -12 -240 -36 -41 -15 -109 -40 -150 -55 -41 -15 -82 -30 -90 -34 -20 -8
-36 4 -44 32 -6 18 0 30 31 58 79 74 115 93 184 97 133 7 156 7 264 -4z m3749
-135 c50 -19 -13 -61 -145 -94 -84 -22 -230 -39 -218 -26 4 4 36 14 70 22 67
15 165 50 186 67 10 7 68 31 90 37 1 0 8 -3 17 -6z m-4607 -86 c-3 -7 -5 -2
-5 12 0 14 2 19 5 13 2 -7 2 -19 0 -25z m2596 0 c15 -7 27 -21 27 -30 0 -20
16 -32 25 -18 9 15 51 12 65 -5 7 -8 20 -15 30 -15 26 0 41 -23 48 -77 4 -26
12 -47 17 -45 12 3 7 85 -6 121 -9 22 -8 23 8 10 10 -7 35 -32 55 -54 35 -37
38 -45 38 -99 0 -50 -2 -57 -12 -43 -24 30 -91 46 -143 33 -25 -7 -42 -16 -38
-21 4 -4 -3 -5 -17 -1 -45 13 -268 31 -300 25 -17 -4 -42 -17 -55 -29 -23 -22
-25 -22 -31 -4 -14 46 -24 64 -35 64 -8 0 -9 -11 -5 -32 18 -85 22 -127 13
-149 -8 -21 -11 -17 -23 36 -7 33 -17 74 -22 90 -6 20 -5 38 3 55 16 31 16 82
1 93 -8 6 -8 10 2 14 6 2 12 13 12 22 0 10 9 30 21 45 20 26 21 26 158 26 89
0 147 -4 164 -12z m512 -34 c18 -43 19 -68 4 -58 -12 7 -59 -42 -59 -62 0 -7
-9 -18 -20 -24 -11 -6 -20 -8 -20 -5 0 13 24 51 47 76 32 35 12 50 -25 20 -52
-41 -84 -54 -93 -39 -5 7 -9 18 -9 24 0 22 118 102 152 104 4 0 15 -16 23 -36z
m-2775 16 c0 -5 -5 -10 -11 -10 -5 0 -7 5 -4 10 3 6 8 10 11 10 2 0 4 -4 4
-10z m2880 -28 c0 -30 -15 -60 -25 -50 -10 10 5 89 16 82 5 -3 9 -17 9 -32z
m-3210 8 c0 -5 -9 -10 -21 -10 -11 0 -17 5 -14 10 3 6 13 10 21 10 8 0 14 -4
14 -10z m-50 -19 c0 -6 -4 -13 -10 -16 -5 -3 -10 1 -10 9 0 9 5 16 10 16 6 0
10 -4 10 -9z m92 -43 c-7 -7 -12 -8 -12 -2 0 14 12 26 19 19 2 -3 -1 -11 -7
-17z m-142 -38 c-15 -28 -23 -20 -14 15 4 17 10 23 16 17 6 -6 6 -18 -2 -32z
m64 -1 c-24 -27 -30 -15 -9 18 12 17 20 23 23 15 2 -7 -4 -22 -14 -33z m3172
-26 c-10 -10 -19 5 -10 18 6 11 8 11 12 0 2 -7 1 -15 -2 -18z m-936 7 c0 -5
-2 -10 -4 -10 -3 0 -8 5 -11 10 -3 6 -1 10 4 10 6 0 11 -4 11 -10z m-1975 -92
c-4 -35 -14 -80 -22 -101 -31 -76 -5 -45 37 45 92 201 93 134 1 -166 -26 -88
-20 -98 9 -14 27 81 129 279 129 253 1 -11 -6 -42 -14 -69 -8 -27 -15 -59 -15
-70 0 -19 1 -19 15 4 8 14 19 36 25 50 6 14 14 32 17 40 4 8 11 -23 16 -70 6
-53 12 -78 17 -66 11 31 19 5 26 -76 7 -78 -4 -118 -31 -118 -10 0 -15 -10
-15 -29 0 -15 -11 -45 -25 -65 -14 -20 -24 -45 -24 -54 1 -16 2 -16 6 1 3 10
14 17 30 17 22 0 24 -3 18 -27 -9 -36 -13 -39 -27 -25 -21 21 -31 13 -24 -18
4 -23 1 -32 -10 -37 -9 -3 -13 -12 -9 -22 21 -51 4 -156 -25 -156 -17 0 -28
-34 -29 -94 -1 -52 -45 -135 -93 -174 -41 -34 -48 -34 -48 3 0 17 -4 30 -10
30 -5 0 -10 -13 -10 -29 0 -31 -25 -64 -43 -58 -7 2 -10 24 -9 53 2 44 1 47
-12 31 -21 -28 -30 -4 -28 78 2 92 -13 58 -28 -62 -6 -48 -14 -90 -17 -93 -3
-3 -3 54 0 125 6 151 -10 140 -21 -15 l-8 -95 -22 35 c-24 38 -28 88 -13 167
5 26 12 64 15 83 5 34 5 34 -18 -12 -13 -26 -27 -64 -31 -84 -6 -32 -8 -36
-17 -21 -10 18 -6 120 7 187 l7 35 -20 -28 -19 -28 -7 32 c-18 89 4 281 34
299 7 4 22 36 34 71 35 102 141 255 249 362 53 52 60 49 52 -25z m2895 -3 c27
-14 41 -29 22 -22 -4 1 -22 -14 -40 -33 -31 -34 -33 -34 -47 -16 -20 26 -19
42 5 66 24 24 23 24 60 5z m66 -70 c-4 -19 -15 -41 -26 -47 -14 -9 -16 -16 -9
-30 7 -13 6 -30 -1 -54 -7 -20 -9 -38 -5 -42 10 -10 35 28 35 53 0 12 6 30 14
40 12 16 12 12 6 -31 -5 -31 -4 -51 3 -56 7 -4 5 -21 -6 -50 -9 -24 -17 -54
-17 -66 0 -51 -144 -292 -204 -341 -10 -8 -31 -42 -48 -75 -39 -76 -46 -60
-19 39 12 41 21 89 21 105 0 21 8 35 25 46 31 20 50 63 60 132 4 28 13 56 21
63 21 18 17 28 -22 51 l-35 21 39 41 c51 52 83 106 106 178 14 42 24 58 40 60
29 5 29 4 22 -37z m-289 3 c-3 -8 -6 -5 -6 6 -1 11 2 17 5 13 3 -3 4 -12 1
-19z m45 -20 c-9 -9 -12 -7 -12 12 0 19 3 21 12 12 9 -9 9 -15 0 -24z m-2047
-24 c48 -6 51 -8 72 -53 12 -25 30 -59 40 -74 15 -24 16 -29 3 -37 -21 -13
-67 -2 -140 33 -69 35 -107 80 -95 117 7 22 30 25 120 14z m1955 -144 c0 -5
-2 -10 -4 -10 -3 0 -8 5 -11 10 -3 6 -1 10 4 10 6 0 11 -4 11 -10z m93 -186
c-9 -15 -19 -21 -21 -15 -4 13 16 41 29 41 5 0 2 -12 -8 -26z m222 -75 c-7
-31 -23 -71 -36 -89 l-24 -32 -3 26 c-2 17 10 50 34 91 21 36 39 63 40 62 1
-1 -3 -27 -11 -58z m-435 41 c0 -5 -7 -10 -15 -10 -8 0 -15 5 -15 10 0 6 7 10
15 10 8 0 15 -4 15 -10z m-1986 -30 c21 -10 58 -22 82 -26 36 -5 44 -10 44
-28 0 -12 12 -39 26 -60 l27 -39 -57 7 c-32 3 -70 13 -86 21 -44 23 -80 72
-80 111 0 19 1 34 3 34 1 0 20 -9 41 -20z m1924 -57 c2 -8 -6 -13 -22 -13 -17
0 -26 5 -26 16 0 19 41 16 48 -3z m217 -134 c-10 -38 -21 -69 -26 -69 -12 0
-11 22 1 55 7 17 7 24 0 20 -17 -11 -11 19 10 45 11 14 20 39 21 55 2 29 2 29
6 -4 3 -19 -3 -65 -12 -102z m-2378 -138 c-1 -26 -6 -37 -14 -34 -14 5 -17 53
-6 92 l6 25 8 -23 c5 -12 8 -39 6 -60z m2501 -6 c1 -15 -3 -25 -11 -25 -21 0
-27 11 -16 31 14 26 24 24 27 -6z m-2488 -112 c0 -31 -2 -54 -4 -52 -8 9 -13
119 -5 113 5 -3 9 -30 9 -61z m2500 -73 c0 -5 -5 -10 -11 -10 -5 0 -7 5 -4 10
3 6 8 10 11 10 2 0 4 -4 4 -10z m-2535 -112 c-4 -18 -12 -37 -18 -43 -7 -7 -8
-4 -3 8 3 11 9 30 12 43 9 36 17 29 9 -8z m2415 -57 c0 -32 -6 -24 -14 19 -4
25 -3 31 4 20 5 -8 10 -26 10 -39z m-5 -129 c-6 -16 -7 -16 -16 0 -7 12 -6 25
3 40 l13 23 3 -23 c2 -13 1 -31 -3 -40z m-4639 -228 c14 -48 13 -58 -6 -145
l-21 -93 20 -27 20 -27 -42 23 c-23 13 -61 28 -84 34 -33 9 -43 18 -52 42 -6
17 -8 35 -5 40 3 5 -16 9 -41 9 -28 0 -44 4 -40 10 3 6 14 10 24 10 21 0 71
37 71 52 0 6 -10 8 -25 4 -30 -8 -31 -2 -6 31 11 13 23 44 26 68 5 31 15 48
36 64 16 12 29 29 29 38 0 13 -5 12 -25 -7 l-25 -23 0 34 c0 85 8 85 71 -3 33
-46 66 -106 75 -134z m2944 113 c36 -29 114 -157 95 -157 -2 0 -33 13 -67 29
-35 16 -75 34 -90 40 -20 7 -29 19 -33 45 -4 19 -4 39 0 45 9 15 76 13 95 -2z
m-893 -239 c-3 -7 -5 -2 -5 12 0 14 2 19 5 13 2 -7 2 -19 0 -25z m-406 -25 c9
-9 3 -25 -27 -69 -63 -92 -111 -141 -155 -158 -29 -12 -87 -19 -189 -23 l-147
-6 -7 27 c-3 14 -13 26 -20 26 -8 0 -24 12 -35 26 l-20 25 22 25 c12 14 22 35
22 46 0 18 12 26 75 46 41 13 104 30 140 37 81 17 323 16 341 -2z m1797 -51
c66 -36 122 -94 122 -127 1 -11 16 -60 35 -110 19 -49 32 -91 31 -93 -2 -1
-39 36 -82 83 -43 47 -83 85 -87 85 -5 0 -36 16 -68 36 -39 24 -59 43 -59 56
0 11 -5 28 -11 39 -8 16 -7 25 5 38 9 10 16 23 16 29 0 14 18 8 98 -36z m1280
-72 c26 -34 28 -67 7 -116 -18 -43 -94 -136 -105 -129 -13 8 -20 77 -10 96 6
11 17 15 30 12 14 -4 23 2 31 20 10 22 8 30 -10 53 -25 32 -27 57 -5 78 23 23
37 20 62 -14z m-2868 -88 c0 -63 -47 -124 -121 -156 -33 -14 -72 -26 -87 -25
-21 0 -16 4 25 20 58 22 130 95 161 161 9 21 18 38 20 38 1 0 2 -17 2 -38z
m-1891 -10 c40 -19 97 -89 108 -130 3 -15 12 -32 19 -39 17 -17 26 -101 16
-138 -9 -32 -14 -33 -94 -19 -35 6 -37 8 -44 53 -7 52 -35 112 -70 154 -13 16
-21 33 -18 39 3 5 -11 27 -32 49 -27 27 -33 40 -23 43 8 2 21 7 29 10 22 8 69
-2 109 -22z m4958 -24 c31 -35 59 -96 73 -161 14 -69 11 -74 -64 -112 -53 -27
-76 -27 -76 0 0 7 -6 20 -13 27 -17 16 -4 181 18 233 16 41 33 44 62 13z
m-5077 -23 c13 -14 20 -25 16 -25 -5 0 -21 11 -38 25 -16 14 -23 25 -16 25 8
0 25 -11 38 -25z m-62 -72 c41 -38 98 -131 86 -142 -3 -3 -10 3 -16 14 -18 32
-53 58 -116 90 -34 17 -61 32 -62 35 0 5 50 37 61 39 4 1 25 -16 47 -36z m387
-141 c-5 -63 -11 -92 -18 -89 -7 2 -11 13 -9 23 1 10 8 62 15 114 14 113 22
84 12 -48z m-534 52 c17 -36 29 -67 27 -69 -2 -2 -23 14 -46 36 -29 29 -42 49
-42 68 0 62 21 50 61 -35z m4950 25 l-10 -24 0 26 c-1 14 2 29 6 33 12 12 14
-9 4 -35z m-3385 18 c4 -3 2 -13 -5 -21 -17 -20 -170 -95 -209 -102 -32 -7
-33 -6 -21 20 7 14 17 26 24 26 16 0 76 46 69 53 -4 3 -4 14 0 23 5 13 17 16
71 12 35 -2 67 -7 71 -11z m2263 -47 c72 -33 147 -64 168 -68 37 -8 38 -9 35
-48 -4 -41 -21 -84 -22 -54 -1 29 -18 42 -82 59 -114 31 -238 113 -238 157 0
8 2 14 4 14 2 0 63 -27 135 -60z m-2803 5 c-35 -18 -36 -18 -36 0 0 10 10 15
33 15 l32 0 -29 -15z m249 -58 c25 -19 13 -32 -51 -56 -56 -21 -140 -29 -129
-12 10 18 -33 33 -56 21 -11 -7 -23 -9 -27 -6 -3 3 0 6 6 6 7 0 12 6 12 14 0
7 10 21 23 29 29 21 194 23 222 4z m2576 -152 c68 -47 102 -77 118 -106 24
-42 82 -201 76 -207 -7 -8 -137 92 -153 117 -8 14 -51 63 -94 107 -61 64 -78
88 -78 111 0 60 13 58 131 -22z m-442 -70 c50 -43 84 -125 89 -218 4 -61 1
-88 -11 -111 -24 -48 -83 -180 -134 -299 -45 -106 -64 -130 -85 -109 -18 18
-10 284 12 377 27 116 68 304 76 348 3 20 10 37 14 37 5 0 22 -11 39 -25z
m1926 -592 c49 -52 136 -203 220 -378 37 -77 104 -214 150 -305 99 -196 127
-267 116 -288 -13 -24 -85 49 -112 113 -13 30 -26 55 -31 55 -11 0 -10 -2 7
-43 39 -94 -4 -54 -61 56 -25 49 -40 67 -54 67 -11 0 -20 5 -20 10 0 6 -9 10
-20 10 -12 0 -28 13 -40 33 -11 17 -21 30 -22 27 -2 -2 -14 3 -28 13 -13 9
-32 17 -41 17 -21 0 -80 60 -72 73 3 6 1 7 -5 3 -18 -11 -71 65 -104 149 -37
97 -48 196 -25 246 69 156 76 169 96 169 11 0 32 -12 46 -27z m-1644 -282 c33
-33 35 -55 14 -125 -24 -77 -61 -133 -162 -241 -52 -55 -101 -108 -109 -118
-27 -33 -37 -9 -30 70 12 130 91 338 147 389 28 25 78 53 97 54 8 0 27 -13 43
-29z m-2041 -530 c0 -29 38 -171 61 -229 23 -57 22 -103 -4 -196 -12 -44 -28
-62 -58 -65 -4 -1 -19 18 -35 42 -21 31 -29 38 -32 25 -2 -10 -10 -18 -17 -18
-8 0 -19 -8 -24 -17 -8 -14 -10 -8 -9 27 0 25 -3 74 -7 109 -6 46 -3 89 10
162 17 91 21 102 59 142 42 44 56 49 56 18z m3198 -356 c92 -87 125 -133 55
-77 -46 37 -154 140 -174 166 -30 40 26 -2 119 -89z m2666 -241 c3 -8 2 -12
-4 -9 -6 3 -10 10 -10 16 0 14 7 11 14 -7z m-1301 -273 c16 -6 30 -24 38 -45
7 -20 16 -36 19 -36 9 0 52 -60 54 -75 1 -8 15 -24 30 -36 45 -36 106 -118 99
-135 -6 -15 81 -114 100 -114 9 0 45 -31 131 -114 23 -22 36 -41 29 -43 -18
-6 -133 72 -254 173 -78 65 -271 261 -347 352 -31 38 -50 52 -70 53 l-27 1 25
7 c14 4 35 4 47 0 14 -5 25 -3 33 7 14 16 57 18 93 5z m1781 -466 c20 -14 39
-25 41 -25 7 0 99 -101 121 -134 12 -17 24 -50 27 -73 4 -34 1 -45 -18 -63
-19 -18 -36 -22 -106 -23 l-84 -2 -29 60 c-73 151 -84 210 -52 260 21 32 53
32 100 0z m-1193 -175 c10 -6 19 -15 19 -21 0 -10 -42 9 -75 35 -19 15 -19 16
8 6 16 -5 37 -15 48 -20z m79 -50 c8 -5 11 -10 5 -10 -5 0 -17 5 -25 10 -8 5
-10 10 -5 10 6 0 17 -5 25 -10z m-6340 -740 c0 -5 -5 -10 -11 -10 -5 0 -7 5
-4 10 3 6 8 10 11 10 2 0 4 -4 4 -10z m-470 -1845 c10 -12 10 -19 1 -28 -9 -9
-14 -9 -21 3 -22 34 -4 54 20 25z m-110 -105 c0 -5 -7 -10 -15 -10 -8 0 -15 5
-15 10 0 6 7 10 15 10 8 0 15 -4 15 -10z m77 -166 c-7 -7 -37 7 -37 17 0 6 9
5 21 -1 11 -7 19 -14 16 -16z"/>
<path d="M4162 8055 c0 -16 2 -22 5 -12 2 9 2 23 0 30 -3 6 -5 -1 -5 -18z"/>
<path d="M5640 11428 c-41 -22 -64 -36 -50 -32 31 8 140 62 140 69 0 8 -12 3
-90 -37z"/>
<path d="M7626 11435 c17 -8 47 -32 65 -54 19 -21 45 -42 59 -45 24 -5 23 -5
-2 6 -15 6 -32 24 -39 39 -13 32 -41 53 -84 62 l-30 6 31 -14z"/>
<path d="M7351 11416 c2 -2 20 -6 39 -10 25 -4 31 -3 20 4 -14 9 -69 15 -59 6z"/>
<path d="M4578 11336 c-42 -11 -121 -57 -134 -77 -2 -4 28 9 68 30 40 21 91
43 113 48 22 6 31 11 20 11 -11 0 -41 -5 -67 -12z"/>
<path d="M7820 11310 c8 -5 20 -10 25 -10 6 0 3 5 -5 10 -8 5 -19 10 -25 10
-5 0 -3 -5 5 -10z"/>
<path d="M4404 11228 l-19 -23 23 19 c21 18 27 26 19 26 -2 0 -12 -10 -23 -22z"/>
<path d="M7940 11191 c14 -11 30 -21 35 -21 11 0 -7 14 -40 31 -13 7 -12 3 5
-10z"/>
<path d="M5988 11183 c7 -3 16 -2 19 1 4 3 -2 6 -13 5 -11 0 -14 -3 -6 -6z"/>
<path d="M7004 11175 c-10 -8 -14 -15 -8 -15 6 0 17 7 24 15 16 19 9 19 -16 0z"/>
<path d="M8060 11095 c0 -5 5 -17 10 -25 5 -8 10 -10 10 -5 0 6 -5 17 -10 25
-5 8 -10 11 -10 5z"/>
<path d="M8080 11007 c0 -4 13 -31 30 -60 33 -58 41 -57 10 1 -24 47 -40 69
-40 59z"/>
<path d="M6876 10909 c-27 -32 -41 -69 -33 -91 2 -7 10 5 17 28 6 22 21 51 32
65 l20 24 -16 -27 c-20 -34 -20 -44 -1 -28 13 11 13 8 0 -23 -17 -42 -19 -67
-5 -67 6 0 10 11 10 23 0 13 13 44 29 68 28 41 34 74 7 36 -7 -9 -17 -17 -21
-17 -4 0 -2 6 4 13 10 13 6 27 -10 27 -4 0 -19 -14 -33 -31z"/>
<path d="M4037 10898 c-10 -5 -25 -7 -33 -4 -8 3 -13 2 -10 -3 3 -5 -1 -12
-10 -15 -9 -3 -12 -2 -9 5 4 5 -10 3 -31 -6 -44 -18 -53 -25 -33 -25 8 0 20 5
27 12 6 6 14 9 18 6 9 -10 -33 -29 -74 -33 -20 -2 -37 -4 -37 -5 0 -1 -9 -3
-20 -4 -49 -6 -97 -18 -92 -23 3 -3 38 0 77 7 39 7 73 10 76 8 2 -3 -6 -18
-18 -34 -21 -27 -21 -28 -1 -11 11 10 36 26 54 36 95 51 135 73 142 81 14 13
-7 19 -26 8z"/>
<path d="M5428 10853 c-36 -37 -86 -133 -69 -133 4 0 17 12 27 26 41 57 66 84
79 84 19 0 27 17 20 40 -9 28 -16 25 -57 -17z"/>
<path d="M8216 10703 c4 -16 13 -45 21 -67 7 -21 13 -47 13 -57 0 -10 20 -37
45 -60 41 -39 57 -69 37 -69 -5 0 -17 -17 -26 -39 -21 -45 -13 -67 31 -96 15
-10 56 -45 91 -78 34 -33 64 -58 67 -55 3 2 -9 30 -26 62 -17 31 -29 59 -27
61 11 11 161 -172 278 -339 30 -43 70 -94 88 -115 27 -29 23 -20 -20 49 -116
187 -244 348 -347 439 -45 39 -60 59 -74 102 -10 34 -33 73 -61 104 -33 36
-51 69 -66 118 -20 66 -37 94 -24 40z"/>
<path d="M7974 10468 c-5 -7 -3 -8 6 -3 9 6 10 2 5 -15 l-7 -22 31 18 c17 10
31 22 31 26 0 13 -58 9 -66 -4z"/>
<path d="M8001 9704 c0 -11 3 -14 6 -6 3 7 2 16 -1 19 -3 4 -6 -2 -5 -13z"/>
<path d="M8012 9670 c0 -8 4 -26 8 -40 6 -20 8 -21 8 -5 0 11 -3 29 -8 40 -5
12 -8 14 -8 5z"/>
<path d="M8031 9574 c0 -11 3 -14 6 -6 3 7 2 16 -1 19 -3 4 -6 -2 -5 -13z"/>
<path d="M8061 9424 c0 -11 3 -14 6 -6 3 7 2 16 -1 19 -3 4 -6 -2 -5 -13z"/>
<path d="M5690 9298 c-26 -24 -30 -34 -30 -82 0 -85 18 -153 52 -191 34 -40
42 -38 113 20 65 53 189 116 295 150 98 32 171 66 153 72 -20 7 -219 -15 -341
-38 -129 -24 -168 -45 -197 -106 -11 -23 -23 -42 -26 -43 -11 0 -29 86 -29
135 0 50 -5 46 115 94 15 6 9 9 -28 12 -41 4 -52 0 -77 -23z"/>
<path d="M5365 9141 c-22 -5 -87 -20 -145 -34 -58 -14 -141 -32 -185 -39 -80
-13 -79 -13 115 -13 121 0 230 -5 287 -14 92 -15 93 -15 158 -74 36 -32 70
-57 77 -55 6 2 -19 31 -57 64 -37 32 -84 84 -104 114 -40 60 -59 67 -146 51z"/>
<path d="M9171 9104 c0 -11 3 -14 6 -6 3 7 2 16 -1 19 -3 4 -6 -2 -5 -13z"/>
<path d="M9188 9023 c-3 -10 1 -34 8 -53 13 -35 13 -35 7 15 -7 58 -9 63 -15
38z"/>
<path d="M5901 8964 c-24 -7 -65 -28 -92 -45 -50 -31 -61 -57 -36 -78 11 -8
19 -5 38 15 13 14 50 44 82 66 31 23 57 45 57 49 0 5 -1 9 -2 8 -2 -1 -23 -7
-47 -15z"/>
<path d="M8808 8483 c7 -3 16 -2 19 1 4 3 -2 6 -13 5 -11 0 -14 -3 -6 -6z"/>
<path d="M8863 8473 c9 -2 23 -2 30 0 6 3 -1 5 -18 5 -16 0 -22 -2 -12 -5z"/>
<path d="M6153 7913 c-18 -7 -16 -42 3 -50 8 -3 22 1 30 9 13 13 12 16 -3 30
-10 8 -24 13 -30 11z"/>
<path d="M6015 7860 c-3 -6 2 -22 13 -38 25 -35 58 -111 67 -153 l7 -34 -30
28 c-17 16 -34 29 -39 29 -4 0 -10 1 -12 4 -2 2 6 2 18 -1 15 -3 21 1 21 15 0
10 -7 20 -15 24 -8 3 -13 13 -10 23 3 10 0 8 -6 -4 -13 -25 -24 -29 -34 -13
-12 19 -26 -2 -20 -30 6 -27 5 -28 -45 -35 -80 -11 -188 -49 -259 -90 -57 -34
-66 -44 -92 -101 -16 -35 -29 -77 -29 -94 0 -17 -5 -41 -11 -52 -9 -17 -7 -24
10 -41 16 -17 36 -22 88 -25 58 -3 78 1 138 26 67 29 103 38 245 63 78 13 88
21 96 70 7 41 24 54 24 18 0 -18 2 -19 15 -9 13 11 13 14 1 24 -9 7 -15 42
-19 106 -4 69 -13 114 -32 165 -15 39 -28 78 -29 89 -3 22 -52 51 -61 36z"/>
<path d="M5142 7676 c-13 -21 157 -132 218 -142 31 -5 40 -13 64 -59 29 -56
62 -93 73 -82 3 4 -1 15 -10 24 -25 28 -67 125 -67 155 0 47 -20 77 -64 92
-47 17 -205 26 -214 12z"/>
<path d="M4980 7348 c0 -2 6 -21 14 -43 12 -34 22 -44 72 -68 48 -24 74 -29
153 -33 64 -3 99 -9 111 -19 15 -14 106 -65 116 -65 14 0 0 33 -31 71 -19 24
-35 52 -35 61 0 27 -18 32 -109 29 -115 -2 -218 13 -245 37 -22 20 -46 36 -46
30z"/>
<path d="M6410 7250 c-15 -9 -5 -30 15 -30 18 0 27 27 11 33 -7 3 -19 2 -26
-3z"/>
<path d="M6181 7204 c-20 -23 -21 -29 -11 -57 6 -18 14 -90 17 -160 4 -87 9
-127 17 -124 16 5 19 127 6 226 -6 46 -9 85 -6 88 3 3 19 -2 36 -10 31 -16 65
-13 54 5 -3 5 -12 7 -20 4 -8 -3 -14 -1 -14 4 0 6 -6 10 -14 10 -7 0 -16 9
-19 20 -7 27 -19 25 -46 -6z"/>
<path d="M6063 7088 c-10 -9 -46 -21 -83 -26 -200 -30 -309 -105 -310 -214 0
-48 -13 -48 -46 1 -31 47 -43 95 -45 179 -1 47 -5 62 -16 62 -13 0 -14 -11 -9
-64 6 -54 4 -68 -13 -97 -12 -19 -21 -42 -21 -52 0 -10 -6 -20 -13 -23 -22 -8
-107 34 -138 67 -39 41 -48 30 -22 -25 51 -103 140 -166 237 -166 30 0 66 4
80 9 18 7 36 5 66 -6 37 -15 45 -15 93 -1 61 19 230 64 269 72 36 8 58 52 69
135 10 80 5 105 -26 121 -15 8 -21 18 -18 30 6 24 -29 23 -54 -2z"/>
<path d="M1110 6970 c-11 -11 -19 -32 -19 -47 2 -27 2 -28 6 -3 3 14 14 35 26
48 25 27 15 30 -13 2z"/>
<path d="M1097 6825 c3 -33 7 -62 9 -64 7 -8 2 63 -7 94 -5 20 -6 9 -2 -30z"/>
<path d="M1085 6719 c-44 -121 -45 -155 -10 -197 14 -17 37 -65 51 -109 14
-43 42 -102 62 -132 20 -30 40 -59 44 -65 4 -6 19 -36 33 -66 53 -115 111
-160 238 -185 40 -8 99 -25 132 -39 128 -52 203 -69 275 -63 59 5 72 3 101
-17 67 -45 129 -56 182 -33 26 11 21 12 -45 12 -62 0 -79 4 -113 26 -34 22
-55 27 -140 32 -98 5 -256 43 -300 71 -11 7 -38 16 -60 19 -58 9 -165 53 -193
79 -13 13 -44 61 -69 108 -24 47 -61 113 -82 147 -25 42 -43 88 -55 145 -21
100 -27 112 -55 116 -26 4 -27 28 -1 102 10 30 17 57 15 59 -3 2 -7 -2 -10
-10z"/>
<path d="M6270 6701 c0 -6 4 -13 10 -16 6 -3 7 1 4 9 -7 18 -14 21 -14 7z"/>
<path d="M6315 6690 c-4 -6 -4 -10 -1 -10 2 0 11 -3 20 -6 9 -3 16 -2 16 4 0
14 -28 23 -35 12z"/>
<path d="M6038 6644 c-17 -16 -6 -24 33 -24 58 0 93 -38 103 -108 6 -49 5 -55
-26 -95 -18 -23 -34 -44 -35 -46 -1 -2 -16 7 -34 20 -49 34 -134 38 -195 9
-66 -32 -111 -75 -125 -118 -16 -49 -17 -210 -1 -239 18 -32 56 -49 153 -68
165 -33 190 -36 205 -24 12 10 14 -3 14 -80 0 -50 4 -91 8 -91 5 0 13 62 20
138 6 75 16 162 21 192 5 30 13 138 16 240 6 168 5 188 -12 219 -10 19 -29 43
-43 53 -28 20 -91 34 -102 22z"/>
<path d="M6230 6635 c-9 -11 -11 -36 -6 -92 11 -115 27 -127 24 -18 -2 50 1
98 6 108 10 21 -7 23 -24 2z"/>
<path d="M4527 6477 c-62 -76 -78 -111 -84 -186 l-6 -71 -73 -55 c-84 -63
-116 -106 -138 -185 -10 -35 -24 -60 -39 -69 -55 -34 -206 -145 -202 -149 3
-3 55 29 117 70 62 42 128 84 147 93 19 9 39 21 45 26 6 6 20 16 30 23 27 19
14 50 -16 41 -13 -4 -30 -14 -39 -21 -8 -8 -19 -14 -22 -14 -30 0 57 118 119
162 65 46 96 77 90 87 -3 5 1 42 10 81 12 53 29 91 61 137 52 76 52 93 0 30z"/>
<path d="M2298 6423 c7 -3 16 -2 19 1 4 3 -2 6 -13 5 -11 0 -14 -3 -6 -6z"/>
<path d="M2258 6413 c7 -3 16 -2 19 1 4 3 -2 6 -13 5 -11 0 -14 -3 -6 -6z"/>
<path d="M4526 6175 c-53 -18 -134 -100 -145 -145 -10 -41 -10 -80 0 -80 4 0
11 -9 14 -20 4 -13 15 -20 30 -20 35 0 37 -13 10 -50 -14 -19 -25 -37 -25 -41
0 -4 26 4 58 17 57 24 82 29 82 18 0 -3 -20 -29 -45 -56 -25 -28 -45 -54 -45
-59 0 -5 28 9 62 31 33 22 65 40 70 40 14 0 9 -13 -14 -37 l-22 -24 41 7 42 6
30 -60 c19 -38 37 -96 47 -154 9 -51 18 -95 20 -97 9 -9 18 12 25 62 5 28 13
81 18 117 16 97 23 306 14 380 -8 62 -10 65 -58 102 -27 21 -48 44 -47 51 2 6
1 9 -3 5 -4 -3 -22 0 -40 8 -42 17 -69 17 -119 -1z"/>
<path d="M2278 5833 c6 -2 18 -2 25 0 6 3 1 5 -13 5 -14 0 -19 -2 -12 -5z"/>
<path d="M2333 5823 c9 -2 25 -2 35 0 9 3 1 5 -18 5 -19 0 -27 -2 -17 -5z"/>
<path d="M7650 5548 c27 -27 277 -256 324 -297 17 -14 0 8 -37 49 -54 61 -63
76 -49 81 14 5 13 7 -7 14 -13 4 -69 42 -125 84 -114 86 -143 105 -106 69z"/>
<path d="M3538 5029 c-21 -12 -68 -92 -68 -118 0 -11 5 -23 10 -26 6 -4 7 -11
4 -17 -4 -6 2 -6 15 1 20 11 52 61 57 91 13 78 11 85 -18 69z"/>
<path d="M8170 4545 c0 -8 5 -15 10 -15 6 0 10 7 10 15 0 8 -4 15 -10 15 -5 0
-10 -7 -10 -15z"/>
<path d="M9139 4343 c-13 -16 -12 -17 4 -4 9 7 17 15 17 17 0 8 -8 3 -21 -13z"/>
<path d="M4321 4084 c0 -11 3 -14 6 -6 3 7 2 16 -1 19 -3 4 -6 -2 -5 -13z"/>
<path d="M3136 3205 c-9 -13 -16 -33 -16 -44 0 -11 -5 -23 -10 -26 -7 -4 -7
-13 0 -26 14 -25 26 -24 33 2 3 13 12 19 23 17 23 -4 40 39 30 76 -8 33 -38
34 -60 1z"/>
<path d="M3117 3033 c-4 -3 -7 -13 -7 -21 0 -12 3 -12 15 -2 8 7 15 16 15 21
0 11 -14 12 -23 2z"/>
<path d="M3040 3005 c0 -11 8 -29 16 -40 15 -19 15 -19 8 10 -8 37 -24 57 -24
30z"/>
<path d="M1521 274 c0 -11 3 -14 6 -6 3 7 2 16 -1 19 -3 4 -6 -2 -5 -13z"/>
<path d="M557 20 c-4 -17 0 -20 25 -20 30 0 31 0 13 20 -23 25 -31 25 -38 0z"/>
</g>
</svg>
